REM DIRINDEX 1\2,1\3,1\4,1\5
REM DIRNAME cjc004,folder01,folder02,folder03,folder04
TITLE ""
FILE "1Q_j_2227-2240.mp3" MP3
  TRACK 01 AUDIO
    TITLE "3:cjc004_0380"
    INDEX 01 00:00:00
  TRACK 02 AUDIO
    TITLE "0:"
    INDEX 01 00:01:24
  TRACK 03 AUDIO
    TITLE "4:cjc004_0381"
    INDEX 01 00:01:56
  TRACK 04 AUDIO
    TITLE "0:"
    INDEX 01 00:03:53
  TRACK 05 AUDIO
    TITLE "5:cjc004_0382"
    INDEX 01 00:04:07
  TRACK 06 AUDIO
    TITLE "0:"
    INDEX 01 00:08:17
  TRACK 07 AUDIO
    TITLE "3:cjc004_0383"
    INDEX 01 00:09:00
  TRACK 08 AUDIO
    TITLE "0:"
    INDEX 01 00:10:18
  TRACK 09 AUDIO
    TITLE "4:cjc004_0384"
    INDEX 01 00:10:47
  TRACK 10 AUDIO
    TITLE "0:"
    INDEX 01 00:11:60
  TRACK 11 AUDIO
    TITLE "5:cjc004_0385"
    INDEX 01 00:12:11
  TRACK 12 AUDIO
    TITLE "0:"
    INDEX 01 00:16:53
  TRACK 13 AUDIO
    TITLE "3:cjc004_0386"
    INDEX 01 00:17:31
  TRACK 14 AUDIO
    TITLE "0:"
    INDEX 01 00:18:44
  TRACK 15 AUDIO
    TITLE "4:cjc004_0387"
    INDEX 01 00:18:72
  TRACK 16 AUDIO
    TITLE "0:"
    INDEX 01 00:20:02
  TRACK 17 AUDIO
    TITLE "5:cjc004_0388"
    INDEX 01 00:20:36
  TRACK 18 AUDIO
    TITLE "0:"
    INDEX 01 00:24:24
  TRACK 19 AUDIO
    TITLE "3:cjc004_0389"
    INDEX 01 00:25:05
  TRACK 20 AUDIO
    TITLE "0:"
    INDEX 01 00:26:32
  TRACK 21 AUDIO
    TITLE "4:cjc004_0390"
    INDEX 01 00:26:66
  TRACK 22 AUDIO
    TITLE "0:"
    INDEX 01 00:28:39
  TRACK 23 AUDIO
    TITLE "5:cjc004_0391"
    INDEX 01 00:28:64
  TRACK 24 AUDIO
    TITLE "0:"
    INDEX 01 00:32:39
  TRACK 25 AUDIO
    TITLE "3:cjc004_0392"
    INDEX 01 00:33:26
  TRACK 26 AUDIO
    TITLE "0:"
    INDEX 01 00:34:42
  TRACK 27 AUDIO
    TITLE "4:cjc004_0393"
    INDEX 01 00:35:02
  TRACK 28 AUDIO
    TITLE "0:"
    INDEX 01 00:36:23
  TRACK 29 AUDIO
    TITLE "5:cjc004_0394"
    INDEX 01 00:36:50
  TRACK 30 AUDIO
    TITLE "0:"
    INDEX 01 00:41:30
  TRACK 31 AUDIO
    TITLE "3:cjc004_0395"
    INDEX 01 00:42:16
  TRACK 32 AUDIO
    TITLE "0:"
    INDEX 01 00:43:39
  TRACK 33 AUDIO
    TITLE "4:cjc004_0396"
    INDEX 01 00:43:68
  TRACK 34 AUDIO
    TITLE "0:"
    INDEX 01 00:45:18
  TRACK 35 AUDIO
    TITLE "5:cjc004_0397"
    INDEX 01 00:45:41
  TRACK 36 AUDIO
    TITLE "0:"
    INDEX 01 00:50:05
  TRACK 37 AUDIO
    TITLE "3:cjc004_0398"
    INDEX 01 00:50:62
  TRACK 38 AUDIO
    TITLE "0:"
    INDEX 01 00:52:26
  TRACK 39 AUDIO
    TITLE "4:cjc004_0399"
    INDEX 01 00:52:49
  TRACK 40 AUDIO
    TITLE "0:"
    INDEX 01 00:53:72
  TRACK 41 AUDIO
    TITLE "5:cjc004_0400"
    INDEX 01 00:54:23
  TRACK 42 AUDIO
    TITLE "0:"
    INDEX 01 01:01:17
  TRACK 43 AUDIO
    TITLE "3:cjc004_0401"
    INDEX 01 01:01:74
  TRACK 44 AUDIO
    TITLE "0:"
    INDEX 01 01:03:26
  TRACK 45 AUDIO
    TITLE "4:cjc004_0402"
    INDEX 01 01:03:53
  TRACK 46 AUDIO
    TITLE "0:"
    INDEX 01 01:04:72
  TRACK 47 AUDIO
    TITLE "5:cjc004_0403"
    INDEX 01 01:05:24
  TRACK 48 AUDIO
    TITLE "0:"
    INDEX 01 01:11:11
  TRACK 49 AUDIO
    TITLE "3:cjc004_0404"
    INDEX 01 01:12:03
  TRACK 50 AUDIO
    TITLE "0:"
    INDEX 01 01:13:38
  TRACK 51 AUDIO
    TITLE "4:cjc004_0405"
    INDEX 01 01:13:73
  TRACK 52 AUDIO
    TITLE "0:"
    INDEX 01 01:15:05
  TRACK 53 AUDIO
    TITLE "5:cjc004_0406"
    INDEX 01 01:15:31
  TRACK 54 AUDIO
    TITLE "0:"
    INDEX 01 01:19:23
  TRACK 55 AUDIO
    TITLE "3:cjc004_0407"
    INDEX 01 01:20:02
  TRACK 56 AUDIO
    TITLE "0:"
    INDEX 01 01:21:39
  TRACK 57 AUDIO
    TITLE "4:cjc004_0408"
    INDEX 01 01:21:63
  TRACK 58 AUDIO
    TITLE "0:"
    INDEX 01 01:23:05
  TRACK 59 AUDIO
    TITLE "5:cjc004_0409"
    INDEX 01 01:23:28
  TRACK 60 AUDIO
    TITLE "0:"
    INDEX 01 01:30:11
  TRACK 61 AUDIO
    TITLE "3:cjc004_0410"
    INDEX 01 01:30:67
  TRACK 62 AUDIO
    TITLE "0:"
    INDEX 01 01:32:10
  TRACK 63 AUDIO
    TITLE "4:cjc004_0411"
    INDEX 01 01:32:33
  TRACK 64 AUDIO
    TITLE "0:"
    INDEX 01 01:33:50
  TRACK 65 AUDIO
    TITLE "5:cjc004_0412"
    INDEX 01 01:34:01
  TRACK 66 AUDIO
    TITLE "0:"
    INDEX 01 01:39:35
  TRACK 67 AUDIO
    TITLE "3:cjc004_0413"
    INDEX 01 01:40:11
  TRACK 68 AUDIO
    TITLE "0:"
    INDEX 01 01:41:24
  TRACK 69 AUDIO
    TITLE "4:cjc004_0414"
    INDEX 01 01:41:54
  TRACK 70 AUDIO
    TITLE "0:"
    INDEX 01 01:42:69
  TRACK 71 AUDIO
    TITLE "5:cjc004_0415"
    INDEX 01 01:43:17
  TRACK 72 AUDIO
    TITLE "0:"
    INDEX 01 01:49:24
  TRACK 73 AUDIO
    TITLE "3:cjc004_0416"
    INDEX 01 01:49:73
  TRACK 74 AUDIO
    TITLE "0:"
    INDEX 01 01:51:15
  TRACK 75 AUDIO
    TITLE "4:cjc004_0417"
    INDEX 01 01:51:38
  TRACK 76 AUDIO
    TITLE "0:"
    INDEX 01 01:53:20
  TRACK 77 AUDIO
    TITLE "5:cjc004_0418"
    INDEX 01 01:53:45
  TRACK 78 AUDIO
    TITLE "0:"
    INDEX 01 01:58:38
  TRACK 79 AUDIO
    TITLE "3:cjc004_0419"
    INDEX 01 01:59:20
  TRACK 80 AUDIO
    TITLE "0:"
    INDEX 01 02:00:24
  TRACK 81 AUDIO
    TITLE "4:cjc004_0420"
    INDEX 01 02:00:57
  TRACK 82 AUDIO
    TITLE "0:"
    INDEX 01 02:02:05
  TRACK 83 AUDIO
    TITLE "5:cjc004_0421"
    INDEX 01 02:02:32
  TRACK 84 AUDIO
    TITLE "0:"
    INDEX 01 02:08:23
